ply
format ascii 1.0
comment Created by Blender 2.79 (sub 0) - www.blender.org, source file: ''
element vertex 192
property float x
property float y
property float z
property float nx
property float ny
property float nz
element face 124
property list uchar uint vertex_indices
end_header
0.000000 1.000000 -1.000000 0.098017 0.000000 -0.995185
0.195090 -1.000000 -0.980785 0.098017 0.000000 -0.995185
0.000000 -1.000000 -1.000000 0.098017 0.000000 -0.995185
0.195090 1.000000 -0.980785 0.290285 0.000000 -0.956940
0.382683 -1.000000 -0.923880 0.290285 0.000000 -0.956940
0.195090 -1.000000 -0.980785 0.290285 0.000000 -0.956940
0.382683 1.000000 -0.923880 0.471397 0.000000 -0.881921
0.555570 -1.000000 -0.831470 0.471397 0.000000 -0.881921
0.382683 -1.000000 -0.923880 0.471397 0.000000 -0.881921
0.555570 1.000000 -0.831470 0.634393 0.000000 -0.773010
0.707107 -1.000000 -0.707107 0.634393 0.000000 -0.773010
0.555570 -1.000000 -0.831470 0.634393 0.000000 -0.773010
0.707107 1.000000 -0.707107 0.773010 0.000000 -0.634393
0.831470 -1.000000 -0.555570 0.773010 0.000000 -0.634393
0.707107 -1.000000 -0.707107 0.773010 0.000000 -0.634393
0.831470 1.000000 -0.555570 0.881921 0.000000 -0.471397
0.923880 -1.000000 -0.382683 0.881921 0.000000 -0.471397
0.831470 -1.000000 -0.555570 0.881921 0.000000 -0.471397
0.923880 1.000000 -0.382683 0.956940 0.000000 -0.290285
0.980785 -1.000000 -0.195090 0.956940 0.000000 -0.290285
0.923880 -1.000000 -0.382683 0.956940 0.000000 -0.290285
0.980785 1.000000 -0.195090 0.995185 0.000000 -0.098017
1.000000 -1.000000 -0.000000 0.995185 0.000000 -0.098017
0.980785 -1.000000 -0.195090 0.995185 0.000000 -0.098017
1.000000 1.000000 -0.000000 0.995185 0.000000 0.098017
0.980785 -1.000000 0.195090 0.995185 0.000000 0.098017
1.000000 -1.000000 -0.000000 0.995185 0.000000 0.098017
0.980785 1.000000 0.195090 0.956940 0.000000 0.290285
0.923880 -1.000000 0.382683 0.956940 0.000000 0.290285
0.980785 -1.000000 0.195090 0.956940 0.000000 0.290285
0.923880 1.000000 0.382683 0.881921 0.000000 0.471396
0.831470 -1.000000 0.555570 0.881921 0.000000 0.471396
0.923880 -1.000000 0.382683 0.881921 0.000000 0.471396
0.831470 1.000000 0.555570 0.773010 0.000000 0.634393
0.707107 -1.000000 0.707107 0.773010 0.000000 0.634393
0.831470 -1.000000 0.555570 0.773010 0.000000 0.634393
0.707107 1.000000 0.707107 0.634393 0.000000 0.773010
0.555570 -1.000000 0.831470 0.634393 0.000000 0.773010
0.707107 -1.000000 0.707107 0.634393 0.000000 0.773010
0.555570 1.000000 0.831470 0.471397 0.000000 0.881921
0.382683 -1.000000 0.923880 0.471397 0.000000 0.881921
0.555570 -1.000000 0.831470 0.471397 0.000000 0.881921
0.382683 1.000000 0.923880 0.290284 0.000000 0.956940
0.195090 -1.000000 0.980785 0.290284 0.000000 0.956940
0.382683 -1.000000 0.923880 0.290284 0.000000 0.956940
0.195090 1.000000 0.980785 0.098017 0.000000 0.995185
-0.000000 -1.000000 1.000000 0.098017 0.000000 0.995185
0.195090 -1.000000 0.980785 0.098017 0.000000 0.995185
-0.000000 1.000000 1.000000 -0.098018 0.000000 0.995185
-0.195091 -1.000000 0.980785 -0.098018 0.000000 0.995185
-0.000000 -1.000000 1.000000 -0.098018 0.000000 0.995185
-0.195091 1.000000 0.980785 -0.290285 0.000000 0.956940
-0.382684 -1.000000 0.923879 -0.290285 0.000000 0.956940
-0.195091 -1.000000 0.980785 -0.290285 0.000000 0.956940
-0.382684 1.000000 0.923879 -0.471397 0.000000 0.881921
-0.555571 -1.000000 0.831469 -0.471397 0.000000 0.881921
-0.382684 -1.000000 0.923879 -0.471397 0.000000 0.881921
-0.555571 1.000000 0.831469 -0.634394 0.000000 0.773010
-0.707107 -1.000000 0.707106 -0.634394 0.000000 0.773010
-0.555571 -1.000000 0.831469 -0.634394 0.000000 0.773010
-0.707107 1.000000 0.707106 -0.773011 0.000000 0.634393
-0.831470 -1.000000 0.555570 -0.773011 0.000000 0.634393
-0.707107 -1.000000 0.707106 -0.773011 0.000000 0.634393
-0.831470 1.000000 0.555570 -0.881922 0.000000 0.471396
-0.923880 -1.000000 0.382683 -0.881922 0.000000 0.471396
-0.831470 -1.000000 0.555570 -0.881922 0.000000 0.471396
-0.923880 1.000000 0.382683 -0.956941 0.000000 0.290284
-0.980785 -1.000000 0.195089 -0.956941 0.000000 0.290284
-0.923880 -1.000000 0.382683 -0.956941 0.000000 0.290284
-0.980785 1.000000 0.195089 -0.995185 0.000000 0.098016
-1.000000 -1.000000 -0.000001 -0.995185 0.000000 0.098016
-0.980785 -1.000000 0.195089 -0.995185 0.000000 0.098016
-1.000000 1.000000 -0.000001 -0.995185 0.000000 -0.098018
-0.980785 -1.000000 -0.195091 -0.995185 0.000000 -0.098018
-1.000000 -1.000000 -0.000001 -0.995185 0.000000 -0.098018
-0.980785 1.000000 -0.195091 -0.956940 0.000000 -0.290286
-0.923879 -1.000000 -0.382684 -0.956940 0.000000 -0.290286
-0.980785 -1.000000 -0.195091 -0.956940 0.000000 -0.290286
-0.923879 1.000000 -0.382684 -0.881921 0.000000 -0.471398
-0.831469 -1.000000 -0.555571 -0.881921 0.000000 -0.471398
-0.923879 -1.000000 -0.382684 -0.881921 0.000000 -0.471398
-0.831469 1.000000 -0.555571 -0.773010 0.000000 -0.634394
-0.707106 -1.000000 -0.707108 -0.773010 0.000000 -0.634394
-0.831469 -1.000000 -0.555571 -0.773010 0.000000 -0.634394
-0.707106 1.000000 -0.707108 -0.634392 0.000000 -0.773011
-0.555569 -1.000000 -0.831470 -0.634392 0.000000 -0.773011
-0.707106 -1.000000 -0.707108 -0.634392 0.000000 -0.773011
-0.555569 1.000000 -0.831470 -0.471395 0.000000 -0.881922
-0.382682 -1.000000 -0.923880 -0.471395 0.000000 -0.881922
-0.555569 -1.000000 -0.831470 -0.471395 0.000000 -0.881922
-0.923879 1.000000 -0.382684 0.000000 1.000000 0.000000
-0.382684 1.000000 0.923879 0.000000 1.000000 0.000000
0.923880 1.000000 0.382683 0.000000 1.000000 0.000000
-0.382682 1.000000 -0.923880 -0.290283 0.000000 -0.956941
-0.195089 -1.000000 -0.980786 -0.290283 0.000000 -0.956941
-0.382682 -1.000000 -0.923880 -0.290283 0.000000 -0.956941
-0.195089 1.000000 -0.980786 -0.098017 0.000000 -0.995185
0.000000 -1.000000 -1.000000 -0.098017 0.000000 -0.995185
-0.195089 -1.000000 -0.980786 -0.098017 0.000000 -0.995185
0.980785 -1.000000 -0.195090 0.000000 -1.000000 0.000000
0.195090 -1.000000 0.980785 0.000000 -1.000000 0.000000
-0.980785 -1.000000 0.195089 0.000000 -1.000000 0.000000
0.195090 1.000000 -0.980785 0.098017 0.000000 -0.995185
0.382683 1.000000 -0.923880 0.290285 0.000000 -0.956940
0.555570 1.000000 -0.831470 0.471397 0.000000 -0.881921
0.707107 1.000000 -0.707107 0.634393 0.000000 -0.773010
0.831470 1.000000 -0.555570 0.773010 0.000000 -0.634393
0.923880 1.000000 -0.382683 0.881921 0.000000 -0.471397
0.980785 1.000000 -0.195090 0.956940 0.000000 -0.290285
1.000000 1.000000 -0.000000 0.995185 0.000000 -0.098017
0.980785 1.000000 0.195090 0.995185 -0.000000 0.098017
0.923880 1.000000 0.382683 0.956940 -0.000000 0.290285
0.831470 1.000000 0.555570 0.881921 -0.000000 0.471396
0.707107 1.000000 0.707107 0.773010 -0.000000 0.634393
0.555570 1.000000 0.831470 0.634393 -0.000000 0.773010
0.382683 1.000000 0.923880 0.471397 -0.000000 0.881921
0.195090 1.000000 0.980785 0.290284 -0.000000 0.956940
-0.000000 1.000000 1.000000 0.098017 -0.000000 0.995185
-0.195091 1.000000 0.980785 -0.098018 0.000000 0.995185
-0.382684 1.000000 0.923879 -0.290285 0.000000 0.956940
-0.555571 1.000000 0.831469 -0.471397 0.000000 0.881921
-0.707107 1.000000 0.707106 -0.634394 0.000000 0.773010
-0.831470 1.000000 0.555570 -0.773011 0.000000 0.634393
-0.923880 1.000000 0.382683 -0.881922 0.000000 0.471396
-0.980785 1.000000 0.195089 -0.956941 0.000000 0.290284
-1.000000 1.000000 -0.000001 -0.995185 0.000000 0.098016
-0.980785 1.000000 -0.195091 -0.995185 0.000000 -0.098018
-0.923879 1.000000 -0.382684 -0.956940 0.000000 -0.290286
-0.831469 1.000000 -0.555571 -0.881921 0.000000 -0.471398
-0.707106 1.000000 -0.707108 -0.773010 0.000000 -0.634394
-0.555569 1.000000 -0.831470 -0.634392 0.000000 -0.773011
-0.382682 1.000000 -0.923880 -0.471395 0.000000 -0.881922
0.382683 1.000000 -0.923880 0.000000 1.000000 0.000000
0.195090 1.000000 -0.980785 0.000000 1.000000 0.000000
0.000000 1.000000 -1.000000 0.000000 1.000000 0.000000
-0.195089 1.000000 -0.980786 0.000000 1.000000 0.000000
-0.382682 1.000000 -0.923880 0.000000 1.000000 0.000000
-0.555569 1.000000 -0.831470 0.000000 1.000000 0.000000
-0.707106 1.000000 -0.707108 0.000000 1.000000 0.000000
-0.831469 1.000000 -0.555571 0.000000 1.000000 0.000000
-0.980785 1.000000 -0.195091 0.000000 1.000000 0.000000
-1.000000 1.000000 -0.000001 0.000000 1.000000 0.000000
-0.980785 1.000000 0.195089 0.000000 1.000000 0.000000
-0.923880 1.000000 0.382683 0.000000 1.000000 0.000000
-0.831470 1.000000 0.555570 0.000000 1.000000 0.000000
-0.707107 1.000000 0.707106 0.000000 1.000000 0.000000
-0.555571 1.000000 0.831469 0.000000 1.000000 0.000000
-0.195091 1.000000 0.980785 0.000000 1.000000 0.000000
-0.000000 1.000000 1.000000 0.000000 1.000000 0.000000
0.195090 1.000000 0.980785 0.000000 1.000000 0.000000
0.382683 1.000000 0.923880 0.000000 1.000000 0.000000
0.555570 1.000000 0.831470 0.000000 1.000000 0.000000
0.707107 1.000000 0.707107 0.000000 1.000000 0.000000
0.831470 1.000000 0.555570 0.000000 1.000000 0.000000
0.980785 1.000000 0.195090 0.000000 1.000000 0.000000
1.000000 1.000000 -0.000000 0.000000 1.000000 0.000000
0.980785 1.000000 -0.195090 -0.000000 1.000000 0.000000
0.923880 1.000000 -0.382683 -0.000000 1.000000 0.000000
0.831470 1.000000 -0.555570 0.000000 1.000000 0.000000
0.707107 1.000000 -0.707107 0.000000 1.000000 0.000000
0.555570 1.000000 -0.831470 0.000000 1.000000 0.000000
-0.195089 1.000000 -0.980786 -0.290283 0.000000 -0.956941
0.000000 1.000000 -1.000000 -0.098017 0.000000 -0.995185
-0.195089 -1.000000 -0.980786 -0.000000 -1.000000 0.000000
0.000000 -1.000000 -1.000000 -0.000000 -1.000000 0.000000
0.195090 -1.000000 -0.980785 -0.000000 -1.000000 0.000000
0.382683 -1.000000 -0.923880 0.000000 -1.000000 0.000000
0.555570 -1.000000 -0.831470 0.000000 -1.000000 0.000000
0.707107 -1.000000 -0.707107 0.000000 -1.000000 0.000000
0.831470 -1.000000 -0.555570 0.000000 -1.000000 0.000000
0.923880 -1.000000 -0.382683 0.000000 -1.000000 -0.000000
1.000000 -1.000000 -0.000000 0.000000 -1.000000 -0.000000
0.980785 -1.000000 0.195090 0.000000 -1.000000 -0.000000
0.923880 -1.000000 0.382683 0.000000 -1.000000 0.000000
0.831470 -1.000000 0.555570 0.000000 -1.000000 0.000000
0.707107 -1.000000 0.707107 0.000000 -1.000000 0.000000
0.555570 -1.000000 0.831470 0.000000 -1.000000 0.000000
0.382683 -1.000000 0.923880 0.000000 -1.000000 0.000000
-0.000000 -1.000000 1.000000 0.000000 -1.000000 0.000000
-0.195091 -1.000000 0.980785 0.000000 -1.000000 0.000000
-0.382684 -1.000000 0.923879 0.000000 -1.000000 0.000000
-0.555571 -1.000000 0.831469 0.000000 -1.000000 0.000000
-0.707107 -1.000000 0.707106 0.000000 -1.000000 0.000000
-0.831470 -1.000000 0.555570 0.000000 -1.000000 0.000000
-0.923880 -1.000000 0.382683 0.000000 -1.000000 0.000000
-1.000000 -1.000000 -0.000001 0.000000 -1.000000 0.000000
-0.980785 -1.000000 -0.195091 0.000000 -1.000000 0.000000
-0.923879 -1.000000 -0.382684 0.000000 -1.000000 0.000000
-0.831469 -1.000000 -0.555571 0.000000 -1.000000 0.000000
-0.707106 -1.000000 -0.707108 0.000000 -1.000000 0.000000
-0.555569 -1.000000 -0.831470 0.000000 -1.000000 0.000000
-0.382682 -1.000000 -0.923880 0.000000 -1.000000 0.000000
3 0 1 2
3 3 4 5
3 6 7 8
3 9 10 11
3 12 13 14
3 15 16 17
3 18 19 20
3 21 22 23
3 24 25 26
3 27 28 29
3 30 31 32
3 33 34 35
3 36 37 38
3 39 40 41
3 42 43 44
3 45 46 47
3 48 49 50
3 51 52 53
3 54 55 56
3 57 58 59
3 60 61 62
3 63 64 65
3 66 67 68
3 69 70 71
3 72 73 74
3 75 76 77
3 78 79 80
3 81 82 83
3 84 85 86
3 87 88 89
3 90 91 92
3 93 94 95
3 96 97 98
3 99 100 101
3 0 102 1
3 3 103 4
3 6 104 7
3 9 105 10
3 12 106 13
3 15 107 16
3 18 108 19
3 21 109 22
3 24 110 25
3 27 111 28
3 30 112 31
3 33 113 34
3 36 114 37
3 39 115 40
3 42 116 43
3 45 117 46
3 48 118 49
3 51 119 52
3 54 120 55
3 57 121 58
3 60 122 61
3 63 123 64
3 66 124 67
3 69 125 70
3 72 126 73
3 75 127 76
3 78 128 79
3 81 129 82
3 84 130 85
3 87 131 88
3 132 133 134
3 134 135 132
3 135 136 132
3 136 137 138
3 138 139 90
3 90 140 141
3 141 142 90
3 142 143 90
3 143 144 91
3 144 145 91
3 145 146 91
3 91 147 148
3 148 149 150
3 150 151 152
3 152 153 92
3 92 154 155
3 155 156 92
3 156 157 92
3 157 158 159
3 159 160 132
3 136 138 132
3 138 90 132
3 91 148 92
3 148 150 92
3 150 152 92
3 157 159 92
3 159 132 92
3 90 143 91
3 132 90 92
3 93 161 94
3 96 162 97
3 163 164 165
3 165 166 167
3 167 168 169
3 169 170 167
3 170 99 167
3 99 171 172
3 172 173 99
3 173 174 99
3 174 175 100
3 175 176 100
3 176 177 100
3 100 178 179
3 179 180 181
3 181 182 183
3 183 184 101
3 101 185 186
3 186 187 188
3 188 189 163
3 189 190 163
3 190 191 163
3 163 165 167
3 100 179 101
3 179 181 101
3 181 183 101
3 101 186 163
3 186 188 163
3 163 167 99
3 99 174 100
3 163 99 101
